<?xml version="1.0" ?><svg id="Layer_1" style="enable-background:new 0 0 64 64;" version="1.1" viewBox="0 0 64 64" xml:space="preserve" xmlns="http://www.w3.org/2000/svg" xmlns:xlink="http://www.w3.org/1999/xlink"><style type="text/css">
	.st0{fill:#231F20;}
</style><path class="st0" d="M26,51c-0.3,0-0.5-0.1-0.7-0.3c-0.4-0.4-0.4-1,0-1.4L42.6,32L25.3,14.7c-0.4-0.4-0.4-1,0-1.4s1-0.4,1.4,0l18,18  c0.4,0.4,0.4,1,0,1.4l-18,18C26.5,50.9,26.3,51,26,51z M20.7,50.7l18-18c0.4-0.4,0.4-1,0-1.4l-18-18c-0.4-0.4-1-0.4-1.4,0  s-0.4,1,0,1.4L36.6,32L19.3,49.3c-0.4,0.4-0.4,1,0,1.4c0.2,0.2,0.5,0.3,0.7,0.3S20.5,50.9,20.7,50.7z"/></svg>